Coordinates
version=1
nRows=14
nColumns=40
inDegrees=yes

Units are S.I. units (second, meters, Newtons, ...)
Angles are in degrees.

endheader
time	pelvis_tilt	pelvis_list	pelvis_rotation	pelvis_tx	pelvis_ty	pelvis_tz	hip_flexion_r	hip_adduction_r	hip_rotation_r	knee_angle_r	knee_angle_r_beta	ankle_angle_r	subtalar_angle_r	mtp_angle_r	hip_flexion_l	hip_adduction_l	hip_rotation_l	knee_angle_l	knee_angle_l_beta	ankle_angle_l	subtalar_angle_l	mtp_angle_l	lumbar_extension	lumbar_bending	lumbar_rotation	arm_flex_r	arm_add_r	arm_rot_r	elbow_flex_r	pro_sup_r	wrist_flex_r	wrist_dev_r	arm_flex_l	arm_add_l	arm_rot_l	elbow_flex_l	pro_sup_l	wrist_flex_l	wrist_dev_l
      2.61500000	     -2.40307646	     -4.75051973	      6.12100308	      1.08369179	      0.93340724	      0.49430928	      8.06921889	      3.57514806	    -14.99668673	     14.06266203	     14.06266203	     10.43194085	     -3.72200731	     -4.45598420	     34.29757015	    -12.17780097	      0.09449260	     51.56436043	     51.56436043	      8.22451824	    -18.64546166	     13.37952474	    -10.53080151	      4.78463282	      1.01529152	     20.84192411	    -21.63560033	     -2.10130733	     90.78431110	     44.46022913	      0.00000000	      0.00000000	     -0.63940540	     -9.11974800	     -2.80212750	     27.39343164	     46.00290728	      0.00000000	      0.00000000
      2.62857143	     -2.59203266	     -4.50359297	      6.61164340	      1.08194171	      0.93378968	      0.49395449	      7.63847376	      3.36843387	    -15.36715611	     13.41951989	     13.41951989	     10.41202881	     -3.56789280	     -4.57696368	     34.43859756	    -11.14107976	      0.46762499	     47.54125376	     47.54125376	      8.51816832	    -18.24813628	     13.20685308	    -10.65560442	      4.53479124	      0.97116598	     22.39076117	    -21.44870951	     -2.23266691	     92.62510286	     44.42054106	      0.00000000	      0.00000000	     -1.42383326	     -8.95210215	     -2.61627151	     27.26590069	     45.95722885	      0.00000000	      0.00000000
      2.64214286	     -2.79292811	     -4.36282872	      7.13029625	      1.08023768	      0.93378861	      0.49337397	      7.25684694	      3.22398843	    -16.01721779	     12.83594633	     12.83594633	     10.19509857	     -3.23162300	     -5.62232740	     34.37430989	    -10.20773235	      0.96268169	     43.17141250	     43.17141250	      7.55657706	    -17.63952144	      9.60591046	    -10.76782605	      4.42768449	      1.29207111	     23.64136173	    -21.84206225	     -2.52371324	     94.89318768	     44.42597957	      0.00000000	      0.00000000	     -2.24853583	     -8.85763127	     -1.57483326	     28.06211368	     45.76691641	      0.00000000	      0.00000000
      2.65571429	     -3.10983781	     -4.20199759	      7.52048715	      1.07853296	      0.93368312	      0.49282094	      7.05509693	      3.07369192	    -16.22711567	     12.36227933	     12.36227933	     10.25537909	     -3.22834726	     -5.62854836	     34.40643506	     -9.27201655	      1.56274788	     39.04372175	     39.04372175	      7.81006364	    -16.22246460	      9.68919451	    -10.67575110	      4.26058587	      1.46118765	     25.23886140	    -21.66994990	     -2.72172863	     95.88642088	     44.41486044	      0.00000000	      0.00000000	     -2.83724909	     -8.60656554	     -1.39675514	     27.79538278	     45.73008913	      0.00000000	      0.00000000
      2.66928571	     -3.29671560	     -4.14858877	      7.92847197	      1.07698780	      0.93352062	      0.49214348	      6.73969177	      3.02813056	    -16.60539724	     11.94538511	     11.94538511	     10.31171262	     -3.04080668	     -5.73707706	     34.23963741	     -8.49933533	      2.28983233	     35.05469080	     35.05469080	      7.99306752	    -14.35258596	      9.49912608	    -10.73590153	      4.22086071	      1.57449811	     26.83389660	    -21.47904800	     -2.84468202	     96.92397104	     44.40241499	      0.00000000	      0.00000000	     -3.39005018	     -8.39044909	     -1.20649610	     27.62572111	     45.69174827	      0.00000000	      0.00000000
      2.68285714	     -3.49441078	     -4.10358722	      8.30083604	      1.07555121	      0.93323795	      0.49141229	      6.45128058	      2.98674158	    -16.97402814	     11.58038997	     11.58038997	     10.45132634	     -2.85524970	     -5.88512641	     34.03950812	     -7.84997066	      2.85884590	     31.30303294	     31.30303294	      8.00084191	    -12.14993006	      9.44824754	    -10.74038822	      4.16086950	      1.78343530	     28.37509102	    -21.38408662	     -2.94556726	     97.75739695	     44.39443103	      0.00000000	      0.00000000	     -3.88603323	     -8.18131695	     -1.05577910	     27.53544711	     45.66037661	      0.00000000	      0.00000000
      2.69642857	     -3.69105728	     -4.12506094	      8.61432655	      1.07432162	      0.93277108	      0.49056222	      6.20489837	      2.99117777	    -17.28052515	     11.29962070	     11.29962070	     10.55309386	     -2.66566679	     -6.01095924	     33.85437954	     -7.32535810	      3.41541685	     27.99768468	     27.99768468	      8.01463764	     -9.98102200	      9.53163337	    -10.69427121	      4.23050573	      2.06461002	     29.83362306	    -21.29393616	     -3.03215682	     98.39666684	     44.38983157	      0.00000000	      0.00000000	     -4.32378041	     -7.99170168	     -0.94425294	     27.47454005	     45.63606891	      0.00000000	      0.00000000
      2.71000000	     -3.74598900	     -4.21685866	      8.91696227	      1.07335239	      0.93237802	      0.48973074	      5.77510510	      3.09876942	    -17.71931550	     10.97712299	     10.97712299	     10.72772189	     -2.26960386	     -6.19420048	     33.55197769	     -7.00398173	      3.70399857	     25.15988899	     25.15988899	      7.85476245	     -7.81022409	      9.50197515	    -10.78137550	      4.35000866	      2.20583089	     31.28019552	    -20.95759550	     -2.98906540	     98.88146206	     44.39089492	      0.00000000	      0.00000000	     -4.81266207	     -7.86108972	     -0.78867019	     27.48377305	     45.60481602	      0.00000000	      0.00000000
      2.72357143	     -3.95780139	     -4.43302026	      9.18524891	      1.07239209	      0.93160084	      0.48885171	      5.64315569	      3.29723188	    -17.97257897	     10.85907985	     10.85907985	     10.89647108	     -2.18988972	     -6.30023629	     33.54839535	     -6.78329837	      4.01284006	     22.95588849	     22.95588849	      7.51776705	     -6.25383350	      9.81214789	    -10.60637935	      4.61377741	      2.58837833	     32.55790122	    -20.94163040	     -3.09216249	     99.17856669	     44.39399705	      0.00000000	      0.00000000	     -5.10123628	     -7.68029328	     -0.72606012	     27.47232599	     45.59066155	      0.00000000	      0.00000000
      2.73714286	     -3.90175815	     -4.38468774	      9.34888525	      1.07201956	      0.93136937	      0.48793682	      5.03932340	      3.27231975	    -18.30986540	     10.55470168	     10.55470168	     11.14504298	     -1.64888928	     -6.38494970	     33.02898440	     -6.52683315	      3.61664889	     21.05937586	     21.05937586	      7.11767716	     -4.63827190	      9.73952544	    -10.74848560	      4.54244823	      2.62287459	     33.85054876	    -20.27324514	     -2.92778653	     99.15079652	     44.40719744	      0.00000000	      0.00000000	     -5.58547722	     -7.67411645	     -0.58056867	     27.51971658	     45.56183031	      0.00000000	      0.00000000
      2.75071429	     -4.02665036	     -4.54546600	      9.50521469	      1.07160595	      0.93062219	      0.48701060	      4.78001462	      3.42414973	    -18.51315275	     10.45768471	     10.45768471	     11.41227135	     -1.46244895	     -6.45172058	     32.92452531	     -6.41215646	      3.36815083	     19.94837068	     19.94837068	      6.61679437	     -3.84861676	      9.80864130	    -10.63593725	      4.69206785	      2.93838108	     34.89352929	    -20.00227260	     -2.90523782	     99.08420378	     44.41867423	      0.00000000	      0.00000000	     -5.86094773	     -7.58781562	     -0.51021925	     27.56224554	     45.54746221	      0.00000000	      0.00000000
      2.76428571	     -3.99478565	     -4.66686427	      9.59775453	      1.07164776	      0.93001089	      0.48598442	      4.33737525	      3.51315511	    -18.90947147	     10.45632927	     10.45632927	     11.96416775	     -0.69038187	     -6.04940369	     32.47763176	     -6.36078190	      2.81599965	     19.03584311	     19.03584311	      5.24029806	     -3.55399235	      7.70383942	    -10.55695597	      4.80352527	      2.31298846	     36.65668028	    -18.84575401	     -1.95418320	     97.23337068	     44.51113917	      0.00000000	      0.00000000	     -6.92899271	     -7.73195489	     -0.13561349	     28.52251842	     45.49168805	      0.00000000	      0.00000000
      2.77785714	     -4.08011122	     -4.83277267	      9.74037048	      1.07189859	      0.92907155	      0.48481325	      4.03421646	      3.67269704	    -19.00518150	     10.44582288	     10.44582288	     12.31248737	     -0.76125512	     -6.14993646	     32.37381748	     -6.29842585	      2.45116853	     19.03178395	     19.03178395	      4.85909841	     -3.63044189	      7.84768591	    -10.30757621	      4.88911533	      2.61985185	     36.88044774	    -18.72201891	     -1.92979230	     97.27313308	     44.51056050	      0.00000000	      0.00000000	     -7.02878032	     -7.74427376	     -0.14001200	     28.50000586	     45.49109831	      0.00000000	      0.00000000
      2.79142857	     -4.15877057	     -4.98761155	      9.60534775	      1.07234105	      0.92823509	      0.48390653	      3.71068494	      3.81882622	    -18.86217722	     10.42251482	     10.42251482	     12.58602387	     -0.55493760	     -6.22222249	     32.02029148	     -6.41249584	      1.75022030	     19.04809291	     19.04809291	      4.39764949	     -3.89788619	      7.90923823	    -10.16319215	      4.99717906	      3.17140875	     37.45834061	    -18.35257370	     -1.91247514	     97.22146706	     44.51583179	      0.00000000	      0.00000000	     -7.08300950	     -7.74576271	     -0.12372360	     28.50653581	     45.48887199	      0.00000000	      0.00000000
